<svg xmlns="http://www.w3.org/2000/svg" viewBox="0 0 45.68 40"><defs><style>.cls-1{fill:#fff;opacity:0.9;}</style></defs><g id="Layer_2" data-name="Layer 2"><g id="Layer_1-2" data-name="Layer 1"><path class="cls-1" d="M34.91,9H32.05a.21.21,0,0,1-.21-.26l.44-1.89a.25.25,0,0,1,.25-.2h.33a.46.46,0,0,0,.45-.37.44.44,0,0,0-.43-.5H31.8a.18.18,0,0,1-.18-.17V1a1,1,0,0,0-1-1H14.54a1,1,0,0,0-1,1V5.62a.18.18,0,0,1-.17.17H12.29a.45.45,0,0,0-.45.37.44.44,0,0,0,.43.5h.35a.25.25,0,0,1,.25.2l.44,1.89A.21.21,0,0,1,13.1,9H10.23a1.78,1.78,0,0,0-1.78,1.78V22.63a1.77,1.77,0,0,0,1.49,1.75.5.5,0,0,1,.34.26,2.35,2.35,0,0,0,2.05,1.23H32.8a2.32,2.32,0,0,0,2.05-1.23.52.52,0,0,1,.35-.26,1.76,1.76,0,0,0,1.48-1.75V10.79A1.78,1.78,0,0,0,34.91,9Zm-7-.31a.58.58,0,0,0,0-.18A.84.84,0,0,0,27.09,8h0a.84.84,0,0,0-.78.53.73.73,0,0,0-.05.2A.35.35,0,0,1,25.9,9H24.48a.19.19,0,0,1-.2-.16l-.44-1.92a.21.21,0,0,1,.21-.27h7.1a.22.22,0,0,1,.22.27S31,8.37,30.92,8.85a.19.19,0,0,1-.19.16H28.27A.35.35,0,0,1,27.92,8.7Zm-5-1.92.14.62a.14.14,0,0,1-.13.17h-.69a.14.14,0,0,1-.13-.17l.14-.62a.16.16,0,0,1,.16-.12h.35A.16.16,0,0,1,22.91,6.78ZM22,8.44H23.2a.11.11,0,0,1,.11.08l.08.36a.1.1,0,0,1-.1.13H21.86a.1.1,0,0,1-.1-.13l.08-.36A.11.11,0,0,1,22,8.44ZM14.38,4.7A.58.58,0,0,1,15,4.13H30.18a.57.57,0,0,1,.57.57v.42a.57.57,0,0,1-.57.57H15a.58.58,0,0,1-.57-.57Zm-.6,2.23A.22.22,0,0,1,14,6.66h7.1a.21.21,0,0,1,.21.27l-.44,1.92a.19.19,0,0,1-.2.16H19.25a.35.35,0,0,1-.35-.31.73.73,0,0,0,0-.2A.84.84,0,0,0,18.07,8h0a.84.84,0,0,0-.79.55.58.58,0,0,0,0,.18.35.35,0,0,1-.35.31H14.42a.19.19,0,0,1-.19-.16ZM32.8,25H12.33a1.46,1.46,0,0,1-.94-.35.14.14,0,0,1,.09-.24H33.65a.14.14,0,0,1,.09.24A1.44,1.44,0,0,1,32.8,25Zm3-2.37a.91.91,0,0,1-.85.91H10.18a.91.91,0,0,1-.86-.91V10.79a.91.91,0,0,1,.91-.91H34.91a.9.9,0,0,1,.9.91Zm-11.33-8-2,5a1,1,0,0,1-.91.61.92.92,0,0,1-.36-.07,1,1,0,0,1-.54-1.28l2-5a1,1,0,0,1,1.27-.54A1,1,0,0,1,24.48,14.59Zm6.46,2.12a1,1,0,0,1-.57.89l-3.64,1.69a.91.91,0,0,1-.41.1,1,1,0,0,1-.92-.62,1,1,0,0,1,.53-1.26l1.71-.8h0l-1.72-.8a1,1,0,0,1-.53-1.23,1,1,0,0,1,1.34-.56l3.64,1.7A1,1,0,0,1,30.94,16.71Zm-11.46-.8-1.72.8h0l1.72.8A1,1,0,0,1,20,18.77a1,1,0,0,1-.91.62.86.86,0,0,1-.41-.1L15,17.6a1,1,0,0,1,0-1.78l3.65-1.7a1,1,0,0,1,1.33.56A1,1,0,0,1,19.48,15.91ZM0,35.76V29.64a.09.09,0,0,1,.09-.09H1.63a.09.09,0,0,1,.09.09v2.27A.09.09,0,0,0,1.8,32H3.92A.09.09,0,0,0,4,31.91V29.64a.09.09,0,0,1,.09-.09H5.63a.09.09,0,0,1,.09.09v6.12a.09.09,0,0,1-.09.09H4.1A.09.09,0,0,1,4,35.76V33.37a.09.09,0,0,0-.09-.08H1.8a.09.09,0,0,0-.08.08v2.39a.09.09,0,0,1-.09.09H.09A.09.09,0,0,1,0,35.76Zm6.12,0,2.11-6.12a.1.1,0,0,1,.09-.06h2a.09.09,0,0,1,.08.06l2.12,6.12a.09.09,0,0,1-.09.12H10.94a.1.1,0,0,1-.09-.07l-.28-1a.1.1,0,0,0-.09-.07H8.18a.08.08,0,0,0-.08.07l-.29,1a.1.1,0,0,1-.09.07H6.21A.09.09,0,0,1,6.12,35.73ZM8.61,33.5h1.45a.1.1,0,0,0,.09-.12c-.14-.37-.55-1.5-.73-2a.09.09,0,0,0-.17,0l-.72,2A.09.09,0,0,0,8.61,33.5Zm8.89-3.64v1.59a.09.09,0,0,1-.15.07,2.74,2.74,0,0,0-.54-.43h0a1.65,1.65,0,0,0-.75-.17,1.54,1.54,0,0,0-1.2.5,1.83,1.83,0,0,0-.26.38,2.26,2.26,0,0,0-.15.44,2.73,2.73,0,0,0,0,.5A1.8,1.8,0,0,0,14.86,34a1.56,1.56,0,0,0,1.19.49,1.66,1.66,0,0,0,.75-.18,2.18,2.18,0,0,0,.55-.42.09.09,0,0,1,.15.07v1.59a.08.08,0,0,1-.05.08,4.06,4.06,0,0,1-.76.28,3.91,3.91,0,0,1-.82.1,3.26,3.26,0,0,1-.95-.13,2.35,2.35,0,0,1-.8-.37,3.17,3.17,0,0,1-1.07-1.18,3.74,3.74,0,0,1-.13-2.94,2.73,2.73,0,0,1,.27-.54,3.23,3.23,0,0,1,.43-.53,2.94,2.94,0,0,1,1-.69,3.3,3.3,0,0,1,1.24-.23,3.4,3.4,0,0,1,.82.1,4.89,4.89,0,0,1,.76.27A.11.11,0,0,1,17.5,29.86Zm.73,5.9V29.64a.09.09,0,0,1,.09-.09h1.52a.09.09,0,0,1,.09.09v2.49a.09.09,0,0,0,.16,0l1.8-2.59a.12.12,0,0,1,.08,0h1.77a.1.1,0,0,1,.07.15l-2.18,2.87a.11.11,0,0,0,0,.11l2.38,3a.1.1,0,0,1-.07.15H22a.13.13,0,0,1-.07,0l-1.86-2.56a.09.09,0,0,0-.16,0v2.46a.09.09,0,0,1-.09.09H18.32A.09.09,0,0,1,18.23,35.76Zm10.71-5.9v1.59a.09.09,0,0,1-.15.07,2.51,2.51,0,0,0-.55-.43h0a1.72,1.72,0,0,0-.76-.17A1.56,1.56,0,0,0,26,31.8a1.43,1.43,0,0,0-.15.44,2.73,2.73,0,0,0-.05.5A1.8,1.8,0,0,0,26.29,34a1.58,1.58,0,0,0,1.19.49,1.73,1.73,0,0,0,.76-.18,2.34,2.34,0,0,0,.54-.42.1.1,0,0,1,.16.07v1.59a.08.08,0,0,1-.06.08,3.61,3.61,0,0,1-.76.28,3.82,3.82,0,0,1-.81.1,3.32,3.32,0,0,1-1-.13,2.54,2.54,0,0,1-.8-.37,3.35,3.35,0,0,1-1.07-1.18,3.65,3.65,0,0,1-.37-1.63,3.51,3.51,0,0,1,.24-1.31,3.45,3.45,0,0,1,.28-.54,3.73,3.73,0,0,1,.42-.53,3,3,0,0,1,1-.69,3.26,3.26,0,0,1,1.24-.23,3.46,3.46,0,0,1,.82.1,5.29,5.29,0,0,1,.76.27A.11.11,0,0,1,28.94,29.86Zm.73,5.9V29.64a.09.09,0,0,1,.09-.09h1.53a.09.09,0,0,1,.09.09v4.65a.09.09,0,0,0,.09.09h2a.09.09,0,0,1,.09.09v1.29a.09.09,0,0,1-.09.09H29.76A.09.09,0,0,1,29.67,35.76Zm4.49-6.21H35.7a.09.09,0,0,1,.09.09v3c0,.47,0,.8,0,1a2.05,2.05,0,0,0,.12.49.63.63,0,0,0,.34.36,1.21,1.21,0,0,0,.6.13,1.26,1.26,0,0,0,.6-.13.79.79,0,0,0,.34-.36h0a1.9,1.9,0,0,0,.11-.48,7.21,7.21,0,0,0,0-1v-3a.09.09,0,0,1,.09-.09h1.53a.09.09,0,0,1,.09.09v3.24a6.33,6.33,0,0,1-.13,1.52,2.06,2.06,0,0,1-.42.85,1.91,1.91,0,0,1-.89.57,5,5,0,0,1-2.73,0,2,2,0,0,1-.89-.57,2.19,2.19,0,0,1-.42-.85,7,7,0,0,1-.13-1.52V29.64A.09.09,0,0,1,34.16,29.55Zm6.58,6.21V29.64a.09.09,0,0,1,.09-.09h1.63a12.14,12.14,0,0,1,1.49.07,2.51,2.51,0,0,1,.73.24,1.37,1.37,0,0,1,.72,1.27,1.19,1.19,0,0,1-.28.85,1.32,1.32,0,0,1-.54.37.08.08,0,0,0,0,.16,1.5,1.5,0,0,1,.7.41,1.64,1.64,0,0,1,.38,1.13,1.79,1.79,0,0,1-.21.88,1.53,1.53,0,0,1-.61.6,2.94,2.94,0,0,1-.79.25,14,14,0,0,1-1.55.07H40.83A.09.09,0,0,1,40.74,35.76ZM42.33,32a.09.09,0,0,0,.09.09h.26a1.93,1.93,0,0,0,.87-.14.52.52,0,0,0,.24-.48.56.56,0,0,0-.22-.5,1.77,1.77,0,0,0-.87-.15h-.28a.09.09,0,0,0-.09.09Zm0,2.49a.09.09,0,0,0,.09.09h.51a1.63,1.63,0,0,0,.86-.16.51.51,0,0,0,.26-.5.66.66,0,0,0-.23-.56,1.73,1.73,0,0,0-.86-.15h-.54a.09.09,0,0,0-.09.09ZM35,39.84V37.47a.09.09,0,0,1,.09-.09h.54a.08.08,0,0,1,.07,0l.94,1.27.09.16.14.29a2.22,2.22,0,0,1,0-.28,1.77,1.77,0,0,1,0-.22V37.47a.09.09,0,0,1,.09-.09h.49a.09.09,0,0,1,.09.09v2.37a.09.09,0,0,1-.09.09h-.54a.11.11,0,0,1-.07,0l-.94-1.29-.09-.16c0-.07-.09-.17-.14-.28,0,.09,0,.18,0,.28h0v1.39a.09.09,0,0,1-.09.09h-.49A.09.09,0,0,1,35,39.84Zm3.42-2.46h.52a.09.09,0,0,1,.09.09v1.15A3.68,3.68,0,0,0,39,39a.64.64,0,0,0,0,.2.23.23,0,0,0,.14.15.43.43,0,0,0,.24,0,.47.47,0,0,0,.24,0,.29.29,0,0,0,.14-.15.64.64,0,0,0,.05-.2,3.68,3.68,0,0,0,0-.39V37.47a.09.09,0,0,1,.09-.09h.52a.09.09,0,0,1,.09.09v1.26a2.37,2.37,0,0,1-.06.62.73.73,0,0,1-.17.34.75.75,0,0,1-.36.23,1.73,1.73,0,0,1-.55.08,1.68,1.68,0,0,1-.55-.08.75.75,0,0,1-.36-.23.92.92,0,0,1-.18-.34,3.13,3.13,0,0,1,0-.62V37.47A.09.09,0,0,1,38.4,37.38Zm3.07,1.83a.09.09,0,0,1,.14,0,.9.9,0,0,0,.23.18.58.58,0,0,0,.3.09.33.33,0,0,0,.22-.08.22.22,0,0,0,.1-.19.24.24,0,0,0-.08-.19.9.9,0,0,0-.35-.15,1,1,0,0,1-.53-.26.6.6,0,0,1-.16-.44.76.76,0,0,1,.25-.6.85.85,0,0,1,.63-.23,1.25,1.25,0,0,1,.4.06,1.48,1.48,0,0,1,.29.12.1.1,0,0,1,0,.12l-.14.32a.1.1,0,0,1-.14,0l-.15-.09a.74.74,0,0,0-.25,0,.32.32,0,0,0-.2.06.19.19,0,0,0-.08.16.18.18,0,0,0,.07.15.7.7,0,0,0,.27.11h0a1.28,1.28,0,0,1,.56.25.74.74,0,0,1,.14.23.85.85,0,0,1,0,.29.86.86,0,0,1-.26.65,1,1,0,0,1-.72.25,1.21,1.21,0,0,1-.48-.09,1.49,1.49,0,0,1-.37-.23.11.11,0,0,1,0-.12Zm2.69.63V38.07a.09.09,0,0,0-.08-.09h-.4a.09.09,0,0,1-.09-.09v-.42a.09.09,0,0,1,.09-.09h1.66a.09.09,0,0,1,.09.09v.42a.09.09,0,0,1-.09.09H45a.09.09,0,0,0-.09.09v1.77a.09.09,0,0,1-.09.09h-.52A.09.09,0,0,1,44.16,39.84Z"/></g></g></svg>